<svg width="39" height="40" viewBox="0 0 39 40" fill="none" xmlns="http://www.w3.org/2000/svg">
<path d="M22.5108 36.6668H22.416C22.0684 36.6447 21.7375 36.502 21.4747 36.2609C21.2119 36.0197 21.032 35.6937 20.963 35.3335L18.5309 22.7168C18.469 22.3966 18.3192 22.1025 18.1001 21.8714C17.8811 21.6402 17.6025 21.4822 17.299 21.4168L5.34345 18.8502C5.00148 18.7785 4.69159 18.5894 4.46211 18.3124C4.23263 18.0354 4.09646 17.6861 4.07482 17.3189C4.05319 16.9516 4.14731 16.5872 4.3425 16.2823C4.5377 15.9775 4.82301 15.7493 5.15393 15.6335L30.4232 6.75018C30.7069 6.62659 31.0185 6.59287 31.32 6.65316C31.6215 6.71345 31.8998 6.86512 32.121 7.08965C32.3421 7.31418 32.4965 7.60183 32.5652 7.91745C32.6339 8.23306 32.614 8.56297 32.5079 8.86685L24.0901 35.5335C23.9802 35.8785 23.7663 36.176 23.4812 36.3807C23.196 36.5853 22.8552 36.6858 22.5108 36.6668Z" fill="#6B6B6B"/>
</svg>
